<mxfile host="app.diagrams.net" modified="2023-11-03T14:30:56.858Z" agent="Mozilla/5.0 (Windows NT 10.0; Win64; x64) AppleWebKit/537.36 (KHTML, like Gecko) Chrome/119.0.0.0 Safari/537.36 Edg/119.0.0.0" etag="kBx9s6n0KwekxrxDENgT" version="22.0.8" type="device">
  <diagram id="R2lEEEUBdFMjLlhIrx00" name="Page-1">
    <mxGraphModel dx="2829" dy="1188" grid="1" gridSize="10" guides="1" tooltips="1" connect="1" arrows="1" fold="1" page="1" pageScale="1" pageWidth="850" pageHeight="1100" math="0" shadow="0" extFonts="Permanent Marker^https://fonts.googleapis.com/css?family=Permanent+Marker">
      <root>
        <mxCell id="0" />
        <mxCell id="1" parent="0" />
        <mxCell id="m-d9OuQ96tlEYD3K8NPe-6" style="rounded=0;orthogonalLoop=1;jettySize=auto;html=1;exitX=0.25;exitY=0;exitDx=0;exitDy=0;endArrow=none;endFill=0;" parent="1" source="m-d9OuQ96tlEYD3K8NPe-1" target="m-d9OuQ96tlEYD3K8NPe-4" edge="1">
          <mxGeometry relative="1" as="geometry" />
        </mxCell>
        <mxCell id="m-d9OuQ96tlEYD3K8NPe-7" style="rounded=0;orthogonalLoop=1;jettySize=auto;html=1;exitX=0.75;exitY=0;exitDx=0;exitDy=0;entryX=0;entryY=1;entryDx=0;entryDy=0;endArrow=none;endFill=0;" parent="1" source="m-d9OuQ96tlEYD3K8NPe-1" target="m-d9OuQ96tlEYD3K8NPe-5" edge="1">
          <mxGeometry relative="1" as="geometry" />
        </mxCell>
        <mxCell id="m-d9OuQ96tlEYD3K8NPe-1" value="Category" style="whiteSpace=wrap;html=1;align=center;" parent="1" vertex="1">
          <mxGeometry x="370" y="410" width="100" height="40" as="geometry" />
        </mxCell>
        <mxCell id="m-d9OuQ96tlEYD3K8NPe-8" style="edgeStyle=orthogonalEdgeStyle;rounded=0;orthogonalLoop=1;jettySize=auto;html=1;exitX=0.5;exitY=0;exitDx=0;exitDy=0;entryX=0.5;entryY=1;entryDx=0;entryDy=0;endArrow=classic;endFill=1;strokeWidth=3;" parent="1" source="m-d9OuQ96tlEYD3K8NPe-2" target="m-d9OuQ96tlEYD3K8NPe-3" edge="1">
          <mxGeometry relative="1" as="geometry" />
        </mxCell>
        <mxCell id="_XZFC3icuOVZNhRGFE-E-10" style="rounded=0;orthogonalLoop=1;jettySize=auto;html=1;exitX=0.5;exitY=1;exitDx=0;exitDy=0;entryX=0.5;entryY=0;entryDx=0;entryDy=0;endArrow=none;endFill=0;" parent="1" source="m-d9OuQ96tlEYD3K8NPe-2" target="m-d9OuQ96tlEYD3K8NPe-21" edge="1">
          <mxGeometry relative="1" as="geometry" />
        </mxCell>
        <mxCell id="_XZFC3icuOVZNhRGFE-E-11" style="rounded=0;orthogonalLoop=1;jettySize=auto;html=1;exitX=0.75;exitY=1;exitDx=0;exitDy=0;entryX=0.5;entryY=0;entryDx=0;entryDy=0;endArrow=none;endFill=0;" parent="1" source="m-d9OuQ96tlEYD3K8NPe-2" target="_XZFC3icuOVZNhRGFE-E-7" edge="1">
          <mxGeometry relative="1" as="geometry" />
        </mxCell>
        <mxCell id="_XZFC3icuOVZNhRGFE-E-23" style="edgeStyle=orthogonalEdgeStyle;rounded=0;orthogonalLoop=1;jettySize=auto;html=1;exitX=0;exitY=0.5;exitDx=0;exitDy=0;entryX=1;entryY=0.5;entryDx=0;entryDy=0;endArrow=none;endFill=0;" parent="1" source="m-d9OuQ96tlEYD3K8NPe-2" target="_XZFC3icuOVZNhRGFE-E-20" edge="1">
          <mxGeometry relative="1" as="geometry" />
        </mxCell>
        <mxCell id="WRj5Y41JTLO4n0C5TctZ-2" style="rounded=0;orthogonalLoop=1;jettySize=auto;html=1;exitX=0.25;exitY=0;exitDx=0;exitDy=0;entryX=0.5;entryY=1;entryDx=0;entryDy=0;endArrow=none;endFill=0;" parent="1" source="m-d9OuQ96tlEYD3K8NPe-2" target="m-d9OuQ96tlEYD3K8NPe-19" edge="1">
          <mxGeometry relative="1" as="geometry" />
        </mxCell>
        <mxCell id="WRj5Y41JTLO4n0C5TctZ-3" style="rounded=0;orthogonalLoop=1;jettySize=auto;html=1;exitX=0.25;exitY=1;exitDx=0;exitDy=0;entryX=0.5;entryY=0;entryDx=0;entryDy=0;endArrow=none;endFill=0;" parent="1" source="m-d9OuQ96tlEYD3K8NPe-2" target="_XZFC3icuOVZNhRGFE-E-1" edge="1">
          <mxGeometry relative="1" as="geometry" />
        </mxCell>
        <mxCell id="m-d9OuQ96tlEYD3K8NPe-2" value="Computer Part" style="whiteSpace=wrap;html=1;align=center;" parent="1" vertex="1">
          <mxGeometry x="370" y="610" width="100" height="40" as="geometry" />
        </mxCell>
        <mxCell id="m-d9OuQ96tlEYD3K8NPe-9" style="edgeStyle=orthogonalEdgeStyle;rounded=0;orthogonalLoop=1;jettySize=auto;html=1;exitX=0.5;exitY=0;exitDx=0;exitDy=0;entryX=0.5;entryY=1;entryDx=0;entryDy=0;endArrow=none;endFill=0;" parent="1" source="m-d9OuQ96tlEYD3K8NPe-3" target="m-d9OuQ96tlEYD3K8NPe-1" edge="1">
          <mxGeometry relative="1" as="geometry" />
        </mxCell>
        <mxCell id="m-d9OuQ96tlEYD3K8NPe-3" value="belongs to" style="shape=rhombus;perimeter=rhombusPerimeter;whiteSpace=wrap;html=1;align=center;" parent="1" vertex="1">
          <mxGeometry x="360" y="500" width="120" height="60" as="geometry" />
        </mxCell>
        <mxCell id="m-d9OuQ96tlEYD3K8NPe-4" value="Category ID" style="ellipse;whiteSpace=wrap;html=1;align=center;fontStyle=4;" parent="1" vertex="1">
          <mxGeometry x="250" y="340" width="100" height="40" as="geometry" />
        </mxCell>
        <mxCell id="m-d9OuQ96tlEYD3K8NPe-5" value="Category Name" style="ellipse;whiteSpace=wrap;html=1;align=center;" parent="1" vertex="1">
          <mxGeometry x="490" y="340" width="100" height="40" as="geometry" />
        </mxCell>
        <mxCell id="m-d9OuQ96tlEYD3K8NPe-16" style="rounded=0;orthogonalLoop=1;jettySize=auto;html=1;exitX=0.75;exitY=0;exitDx=0;exitDy=0;entryX=0.5;entryY=1;entryDx=0;entryDy=0;endArrow=none;endFill=0;" parent="1" source="m-d9OuQ96tlEYD3K8NPe-10" target="m-d9OuQ96tlEYD3K8NPe-12" edge="1">
          <mxGeometry relative="1" as="geometry" />
        </mxCell>
        <mxCell id="m-d9OuQ96tlEYD3K8NPe-10" value="Manufacturer" style="whiteSpace=wrap;html=1;align=center;" parent="1" vertex="1">
          <mxGeometry x="930" y="610" width="100" height="40" as="geometry" />
        </mxCell>
        <mxCell id="m-d9OuQ96tlEYD3K8NPe-15" style="rounded=0;orthogonalLoop=1;jettySize=auto;html=1;exitX=0.5;exitY=1;exitDx=0;exitDy=0;entryX=0.25;entryY=0;entryDx=0;entryDy=0;endArrow=none;endFill=0;" parent="1" source="m-d9OuQ96tlEYD3K8NPe-11" target="m-d9OuQ96tlEYD3K8NPe-10" edge="1">
          <mxGeometry relative="1" as="geometry" />
        </mxCell>
        <mxCell id="m-d9OuQ96tlEYD3K8NPe-11" value="Manufacturer ID" style="ellipse;whiteSpace=wrap;html=1;align=center;fontStyle=4;" parent="1" vertex="1">
          <mxGeometry x="810" y="540" width="100" height="40" as="geometry" />
        </mxCell>
        <mxCell id="m-d9OuQ96tlEYD3K8NPe-12" value="Manufacturer Name" style="ellipse;whiteSpace=wrap;html=1;align=center;" parent="1" vertex="1">
          <mxGeometry x="1050" y="540" width="100" height="40" as="geometry" />
        </mxCell>
        <mxCell id="m-d9OuQ96tlEYD3K8NPe-17" style="rounded=0;orthogonalLoop=1;jettySize=auto;html=1;exitX=0.5;exitY=0;exitDx=0;exitDy=0;entryX=0.25;entryY=1;entryDx=0;entryDy=0;endArrow=none;endFill=0;" parent="1" source="m-d9OuQ96tlEYD3K8NPe-13" target="m-d9OuQ96tlEYD3K8NPe-10" edge="1">
          <mxGeometry relative="1" as="geometry" />
        </mxCell>
        <mxCell id="m-d9OuQ96tlEYD3K8NPe-13" value="Manufacturer Address" style="ellipse;whiteSpace=wrap;html=1;align=center;" parent="1" vertex="1">
          <mxGeometry x="810" y="680" width="100" height="40" as="geometry" />
        </mxCell>
        <mxCell id="m-d9OuQ96tlEYD3K8NPe-18" style="rounded=0;orthogonalLoop=1;jettySize=auto;html=1;exitX=0.5;exitY=0;exitDx=0;exitDy=0;entryX=0.75;entryY=1;entryDx=0;entryDy=0;endArrow=none;endFill=0;" parent="1" source="m-d9OuQ96tlEYD3K8NPe-14" target="m-d9OuQ96tlEYD3K8NPe-10" edge="1">
          <mxGeometry relative="1" as="geometry" />
        </mxCell>
        <mxCell id="m-d9OuQ96tlEYD3K8NPe-14" value="Manufacturer Phone Number" style="ellipse;whiteSpace=wrap;html=1;align=center;" parent="1" vertex="1">
          <mxGeometry x="1050" y="680" width="100" height="40" as="geometry" />
        </mxCell>
        <mxCell id="m-d9OuQ96tlEYD3K8NPe-19" value="Part ID" style="ellipse;whiteSpace=wrap;html=1;align=center;fontStyle=4;" parent="1" vertex="1">
          <mxGeometry x="250" y="540" width="100" height="40" as="geometry" />
        </mxCell>
        <mxCell id="m-d9OuQ96tlEYD3K8NPe-21" value="Part Name" style="ellipse;whiteSpace=wrap;html=1;align=center;" parent="1" vertex="1">
          <mxGeometry x="370" y="720" width="100" height="40" as="geometry" />
        </mxCell>
        <mxCell id="_XZFC3icuOVZNhRGFE-E-1" value="Part Price" style="ellipse;whiteSpace=wrap;html=1;align=center;" parent="1" vertex="1">
          <mxGeometry x="250" y="680" width="100" height="40" as="geometry" />
        </mxCell>
        <mxCell id="_XZFC3icuOVZNhRGFE-E-6" style="rounded=0;orthogonalLoop=1;jettySize=auto;html=1;exitX=1;exitY=0.5;exitDx=0;exitDy=0;entryX=0;entryY=0.5;entryDx=0;entryDy=0;endArrow=none;endFill=0;" parent="1" source="_XZFC3icuOVZNhRGFE-E-4" target="m-d9OuQ96tlEYD3K8NPe-10" edge="1">
          <mxGeometry relative="1" as="geometry" />
        </mxCell>
        <mxCell id="_XZFC3icuOVZNhRGFE-E-4" value="produce by" style="shape=rhombus;perimeter=rhombusPerimeter;whiteSpace=wrap;html=1;align=center;" parent="1" vertex="1">
          <mxGeometry x="640" y="600" width="120" height="60" as="geometry" />
        </mxCell>
        <mxCell id="_XZFC3icuOVZNhRGFE-E-5" style="rounded=0;orthogonalLoop=1;jettySize=auto;html=1;exitX=1;exitY=0.5;exitDx=0;exitDy=0;endArrow=classic;endFill=1;entryX=0;entryY=0.5;entryDx=0;entryDy=0;strokeWidth=3;" parent="1" source="m-d9OuQ96tlEYD3K8NPe-2" target="_XZFC3icuOVZNhRGFE-E-4" edge="1">
          <mxGeometry relative="1" as="geometry">
            <mxPoint x="640" y="630" as="targetPoint" />
          </mxGeometry>
        </mxCell>
        <mxCell id="_XZFC3icuOVZNhRGFE-E-7" value="Part Warranty" style="ellipse;whiteSpace=wrap;html=1;align=center;" parent="1" vertex="1">
          <mxGeometry x="490" y="680" width="100" height="40" as="geometry" />
        </mxCell>
        <mxCell id="_XZFC3icuOVZNhRGFE-E-13" style="rounded=0;orthogonalLoop=1;jettySize=auto;html=1;exitX=0.5;exitY=1;exitDx=0;exitDy=0;entryX=0.75;entryY=0;entryDx=0;entryDy=0;endArrow=none;endFill=0;" parent="1" source="_XZFC3icuOVZNhRGFE-E-8" target="m-d9OuQ96tlEYD3K8NPe-2" edge="1">
          <mxGeometry relative="1" as="geometry" />
        </mxCell>
        <mxCell id="_XZFC3icuOVZNhRGFE-E-8" value="Part Available Quantity" style="ellipse;whiteSpace=wrap;html=1;align=center;" parent="1" vertex="1">
          <mxGeometry x="490" y="540" width="100" height="40" as="geometry" />
        </mxCell>
        <mxCell id="_XZFC3icuOVZNhRGFE-E-21" style="rounded=0;orthogonalLoop=1;jettySize=auto;html=1;exitX=0.25;exitY=0;exitDx=0;exitDy=0;entryX=0.5;entryY=1;entryDx=0;entryDy=0;endArrow=none;endFill=0;" parent="1" source="_XZFC3icuOVZNhRGFE-E-14" target="_XZFC3icuOVZNhRGFE-E-15" edge="1">
          <mxGeometry relative="1" as="geometry" />
        </mxCell>
        <mxCell id="_XZFC3icuOVZNhRGFE-E-22" style="rounded=0;orthogonalLoop=1;jettySize=auto;html=1;exitX=0.75;exitY=0;exitDx=0;exitDy=0;entryX=0.5;entryY=1;entryDx=0;entryDy=0;endArrow=none;endFill=0;" parent="1" source="_XZFC3icuOVZNhRGFE-E-14" target="_XZFC3icuOVZNhRGFE-E-16" edge="1">
          <mxGeometry relative="1" as="geometry" />
        </mxCell>
        <mxCell id="_XZFC3icuOVZNhRGFE-E-14" value="Salesperson" style="whiteSpace=wrap;html=1;align=center;" parent="1" vertex="1">
          <mxGeometry x="-190" y="610" width="100" height="40" as="geometry" />
        </mxCell>
        <mxCell id="_XZFC3icuOVZNhRGFE-E-15" value="Salesperson ID" style="ellipse;whiteSpace=wrap;html=1;align=center;fontStyle=4;" parent="1" vertex="1">
          <mxGeometry x="-310" y="540" width="100" height="40" as="geometry" />
        </mxCell>
        <mxCell id="_XZFC3icuOVZNhRGFE-E-16" value="Salesperson Name" style="ellipse;whiteSpace=wrap;html=1;align=center;" parent="1" vertex="1">
          <mxGeometry x="-70" y="540" width="100" height="40" as="geometry" />
        </mxCell>
        <mxCell id="_XZFC3icuOVZNhRGFE-E-26" style="rounded=0;orthogonalLoop=1;jettySize=auto;html=1;exitX=0.5;exitY=0;exitDx=0;exitDy=0;entryX=0.25;entryY=1;entryDx=0;entryDy=0;endArrow=none;endFill=0;" parent="1" source="_XZFC3icuOVZNhRGFE-E-17" target="_XZFC3icuOVZNhRGFE-E-14" edge="1">
          <mxGeometry relative="1" as="geometry" />
        </mxCell>
        <mxCell id="_XZFC3icuOVZNhRGFE-E-17" value="Salesperson Address" style="ellipse;whiteSpace=wrap;html=1;align=center;" parent="1" vertex="1">
          <mxGeometry x="-310" y="680" width="100" height="40" as="geometry" />
        </mxCell>
        <mxCell id="_XZFC3icuOVZNhRGFE-E-27" style="rounded=0;orthogonalLoop=1;jettySize=auto;html=1;exitX=0.5;exitY=0;exitDx=0;exitDy=0;entryX=0.75;entryY=1;entryDx=0;entryDy=0;endArrow=none;endFill=0;" parent="1" source="_XZFC3icuOVZNhRGFE-E-18" target="_XZFC3icuOVZNhRGFE-E-14" edge="1">
          <mxGeometry relative="1" as="geometry" />
        </mxCell>
        <mxCell id="_XZFC3icuOVZNhRGFE-E-18" value="Salesperson Phone Number" style="ellipse;whiteSpace=wrap;html=1;align=center;" parent="1" vertex="1">
          <mxGeometry x="-70" y="680" width="100" height="40" as="geometry" />
        </mxCell>
        <mxCell id="_XZFC3icuOVZNhRGFE-E-25" style="rounded=0;orthogonalLoop=1;jettySize=auto;html=1;entryX=0;entryY=0.5;entryDx=0;entryDy=0;endArrow=none;endFill=0;" parent="1" source="_XZFC3icuOVZNhRGFE-E-19" target="_XZFC3icuOVZNhRGFE-E-14" edge="1">
          <mxGeometry relative="1" as="geometry" />
        </mxCell>
        <mxCell id="_XZFC3icuOVZNhRGFE-E-19" value="Salesperson Experience" style="ellipse;whiteSpace=wrap;html=1;align=center;" parent="1" vertex="1">
          <mxGeometry x="-400" y="610" width="100" height="40" as="geometry" />
        </mxCell>
        <mxCell id="_XZFC3icuOVZNhRGFE-E-24" style="rounded=0;orthogonalLoop=1;jettySize=auto;html=1;endArrow=none;endFill=0;" parent="1" source="_XZFC3icuOVZNhRGFE-E-20" target="_XZFC3icuOVZNhRGFE-E-14" edge="1">
          <mxGeometry relative="1" as="geometry" />
        </mxCell>
        <mxCell id="_XZFC3icuOVZNhRGFE-E-20" value="sell" style="shape=rhombus;perimeter=rhombusPerimeter;whiteSpace=wrap;html=1;align=center;" parent="1" vertex="1">
          <mxGeometry x="80" y="600" width="120" height="60" as="geometry" />
        </mxCell>
        <mxCell id="aRNeA1mhcJnV62-i4Jk8-4" style="edgeStyle=orthogonalEdgeStyle;rounded=0;orthogonalLoop=1;jettySize=auto;html=1;exitX=0.5;exitY=0;exitDx=0;exitDy=0;entryX=0.5;entryY=1;entryDx=0;entryDy=0;strokeWidth=3;" parent="1" source="_XZFC3icuOVZNhRGFE-E-28" target="_XZFC3icuOVZNhRGFE-E-20" edge="1">
          <mxGeometry relative="1" as="geometry" />
        </mxCell>
        <mxCell id="_XZFC3icuOVZNhRGFE-E-28" value="Transaction Record" style="whiteSpace=wrap;html=1;align=center;" parent="1" vertex="1">
          <mxGeometry x="90" y="760" width="100" height="40" as="geometry" />
        </mxCell>
        <mxCell id="aRNeA1mhcJnV62-i4Jk8-1" style="rounded=0;orthogonalLoop=1;jettySize=auto;html=1;exitX=1;exitY=0;exitDx=0;exitDy=0;entryX=0.25;entryY=1;entryDx=0;entryDy=0;endArrow=none;endFill=0;" parent="1" source="WRj5Y41JTLO4n0C5TctZ-1" target="_XZFC3icuOVZNhRGFE-E-28" edge="1">
          <mxGeometry relative="1" as="geometry" />
        </mxCell>
        <mxCell id="WRj5Y41JTLO4n0C5TctZ-1" value="Transaction ID" style="ellipse;whiteSpace=wrap;html=1;align=center;fontStyle=4;" parent="1" vertex="1">
          <mxGeometry x="-70" y="830" width="100" height="40" as="geometry" />
        </mxCell>
        <mxCell id="aRNeA1mhcJnV62-i4Jk8-3" style="rounded=0;orthogonalLoop=1;jettySize=auto;html=1;exitX=0;exitY=0;exitDx=0;exitDy=0;entryX=0.75;entryY=1;entryDx=0;entryDy=0;endArrow=none;endFill=0;" parent="1" source="WRj5Y41JTLO4n0C5TctZ-4" target="_XZFC3icuOVZNhRGFE-E-28" edge="1">
          <mxGeometry relative="1" as="geometry" />
        </mxCell>
        <mxCell id="WRj5Y41JTLO4n0C5TctZ-4" value="Transaction Date" style="ellipse;whiteSpace=wrap;html=1;align=center;" parent="1" vertex="1">
          <mxGeometry x="250" y="830" width="100" height="40" as="geometry" />
        </mxCell>
      </root>
    </mxGraphModel>
  </diagram>
</mxfile>
